<svg width="297" height="297" viewBox="0 0 297 297" fill="none" xmlns="http://www.w3.org/2000/svg">
<path d="M286.472 163.952C286.701 141.689 287.46 119.424 286.576 97.1656C285.745 76.1924 284.938 55.4103 285.615 34.4094C285.745 30.4069 282.266 28.6952 279.206 29.2555C278.648 29.0862 278.027 29.0011 277.332 29.0288C234.026 30.7811 190.91 30.5366 147.593 29.6168C126.822 29.1753 106 28.6199 85.2251 29.102C64.1253 29.5911 43.0224 31.3375 21.9107 30.2831C18.4328 30.1099 16.6884 32.6948 16.6597 35.3885C16.5746 35.9479 16.5676 36.5449 16.6597 37.1755C19.5099 56.6884 17.5685 76.4637 16.7132 96.0469C15.8628 115.533 16.9042 135.112 17.0448 154.61C17.1785 173.175 16.9686 191.745 17.2329 210.309C17.4685 226.896 18.12 243.479 18.1447 260.07C18.1516 264.924 23.3561 266.421 26.5666 264.564C112.027 265.707 197.55 266.317 283.005 264.525C285.693 264.469 287.107 262.483 287.278 260.401C287.998 259.553 288.452 258.419 288.45 256.987C288.402 225.962 286.154 194.989 286.472 163.952ZM251.081 226.977C259.714 226.858 268.344 226.668 276.978 226.604C277.04 228.563 277.098 230.522 277.152 232.481C265.613 233.189 254.055 233.488 242.5 233.863C242.676 233.758 242.854 233.652 243.027 233.548C245.372 232.142 249.722 229.924 251.081 226.977ZM242.925 208.828C244.763 208.279 245.014 206.333 244.26 205.068C250.057 205.112 255.858 205.197 261.652 205.285C266.56 205.357 271.433 205.942 276.279 205.56C276.35 207.709 276.422 209.858 276.495 212.008C264.334 212.242 252.173 212.452 240.01 212.463C239.212 212.464 239.212 213.701 240.01 213.701C252.187 213.69 264.362 213.479 276.537 213.245C276.599 215.072 276.66 216.897 276.722 218.725C266.885 219.513 257.019 219.317 247.154 219.199C240.937 216.268 229.941 219.288 223.666 221.777C223.065 220.126 222.566 218.402 222.533 216.688C229.228 213.884 235.973 210.9 242.925 208.828ZM260.66 184.983C265.681 185.24 270.702 185.34 275.717 184.941C275.746 186.418 275.779 187.894 275.814 189.371C270.821 189.817 265.813 189.774 260.801 189.673C262.776 188.554 262.359 185.562 260.66 184.983ZM246.731 224.73C246.935 224.516 246.858 224.581 246.731 224.73ZM251.322 223.974C250.873 222.495 250.106 221.343 249.103 220.458C258.332 220.576 267.561 220.697 276.762 219.957C276.824 221.76 276.881 223.563 276.939 225.366C268.443 225.429 259.949 225.612 251.454 225.732C251.534 225.169 251.509 224.585 251.322 223.974ZM28.9981 255.687C28.8902 241.065 28.3991 226.448 28.1506 211.827C27.8269 192.76 28.0645 173.682 27.9388 154.612C27.8051 134.473 26.8102 114.291 27.6893 94.1639C28.4615 76.4914 29.7267 58.9773 28.0219 41.3998C46.5122 41.8919 65.0143 40.5761 83.4926 40.0386C104.232 39.4357 125.035 40.0445 145.774 40.4692C188.783 41.3503 231.594 41.6691 274.585 40.0158C274.563 41.0909 274.552 42.1651 274.535 43.2392C268.966 43.365 263.401 43.6333 257.831 43.6669C252.014 43.7026 246.121 44.849 240.423 43.1937C239.655 42.97 239.33 44.1649 240.094 44.3867C245.436 45.939 251.017 45.1599 256.488 44.9272C262.479 44.6728 268.507 44.5381 274.516 44.4659C274.487 46.5152 274.47 48.5645 274.462 50.6118C263.307 50.6534 252.154 50.7979 241.001 50.5959C240.202 50.5811 240.204 51.8186 241.001 51.8334C252.153 52.0344 263.303 51.8909 274.457 51.8493C274.453 53.8827 274.46 55.9152 274.476 57.9477C263.58 56.9577 252.664 57.7239 241.743 57.7744C240.945 57.7784 240.944 59.0159 241.743 59.0119C252.666 58.9624 263.585 58.1942 274.482 59.1862C274.503 61.3632 274.534 63.5392 274.575 65.7162C274.548 65.7182 274.524 65.7113 274.496 65.7172C269.296 66.825 264.218 66.2162 258.999 65.6251C253.273 64.9767 247.581 66.234 241.908 65.4697C241.127 65.3648 240.791 66.5567 241.579 66.6627C246.804 67.3665 252.012 66.2261 257.267 66.6805C263.129 67.1874 268.761 68.1358 274.594 66.9488C274.627 68.5951 274.67 70.2425 274.712 71.8889C263.557 71.9176 252.404 72.1166 241.248 72.1294C240.45 72.1304 240.45 73.3679 241.248 73.3669C252.414 73.3541 263.578 73.1541 274.744 73.1264C274.803 75.2588 274.87 77.3923 274.944 79.5247C263.997 80.4752 252.965 79.795 241.991 79.5544C241.192 79.5366 241.194 80.7741 241.991 80.7919C252.988 81.0335 264.022 81.6849 274.984 80.7474C275.042 82.3225 275.105 83.8986 275.17 85.4746C269.654 85.4242 264.139 85.2885 258.623 85.3687C255.797 85.4093 252.939 85.5063 250.136 85.8756C247.478 86.2261 244.847 87.0596 242.155 86.5072C241.377 86.3468 241.045 87.5398 241.826 87.7002C245.997 88.5575 250.692 86.9715 254.875 86.732C261.642 86.3449 268.441 86.632 275.219 86.7121C275.299 88.6179 275.384 90.5256 275.473 92.4343C264.725 92.467 253.978 92.6601 243.229 92.672C242.431 92.6729 242.431 93.9104 243.229 93.9095C253.997 93.8966 264.763 93.7035 275.531 93.6709C275.557 94.2144 275.579 94.7569 275.606 95.3004C275.679 96.8042 275.724 98.308 275.781 99.8118C271.192 100.196 266.508 99.8564 261.932 99.7633C255.268 99.6287 248.624 99.6317 241.992 98.8585C241.2 98.7664 241.209 100.005 241.992 100.096C248.618 100.868 255.27 100.897 261.932 101.001C266.549 101.073 271.222 101.403 275.829 101.033C275.889 102.734 275.941 104.435 275.982 106.136C271.198 106.333 266.424 106.731 261.628 106.631C255.235 106.498 248.9 105.371 242.487 105.293C241.688 105.284 241.689 106.521 242.487 106.531C248.289 106.6 254.038 107.245 259.812 107.768C265.185 108.257 270.614 107.66 276.008 107.39C276.054 109.502 276.094 111.615 276.115 113.726C269.495 113.81 262.84 114.197 256.233 113.883C251.803 113.673 246.886 112.753 242.669 114.535C241.936 114.845 242.567 115.91 243.294 115.603C247.805 113.698 253.577 115.096 258.327 115.192C264.252 115.313 270.194 115.037 276.125 114.969C276.147 117.683 276.155 120.397 276.146 123.112C265.282 124.321 254.366 122.713 243.477 122.617C242.678 122.611 242.679 123.848 243.477 123.855C254.376 123.95 265.27 125.508 276.14 124.347C276.132 126.004 276.128 127.662 276.112 129.319C265.03 129.517 253.812 131.004 242.898 128.58C242.121 128.407 241.791 129.6 242.57 129.773C253.597 132.222 264.904 130.748 276.097 130.555C276.07 133.052 276.039 135.549 276 138.047C264.996 137.437 254.014 136.361 242.981 136.726C242.185 136.752 242.182 137.99 242.981 137.963C254.007 137.599 264.982 138.673 275.978 139.283C275.945 141.411 275.91 143.539 275.872 145.667C264.978 143.921 253.948 145.542 242.981 145.636C242.183 145.643 242.182 146.88 242.981 146.873C253.931 146.78 264.973 145.11 275.851 146.912C275.823 148.479 275.795 150.046 275.767 151.614C264.59 151.709 253.417 152.05 242.238 152.072C241.44 152.074 241.44 153.311 242.238 153.309C253.409 153.289 264.576 152.946 275.747 152.851C275.699 155.627 275.656 158.4 275.618 161.174C264.24 160.378 252.888 159.184 241.496 160.487C240.713 160.577 240.704 161.816 241.496 161.724C252.882 160.423 264.229 161.616 275.602 162.411C275.577 164.497 275.565 166.583 275.562 168.669C264.179 168.834 252.661 170.263 241.413 167.934C240.634 167.772 240.303 168.965 241.084 169.127C252.45 171.481 264.063 170.069 275.564 169.907C275.565 172.198 275.577 174.491 275.599 176.781C270.942 176.712 266.288 176.563 261.633 176.393C255.078 176.155 248.391 177.069 241.908 175.853C241.128 175.707 240.795 176.899 241.579 177.046C247.091 178.079 252.658 177.546 258.23 177.523C264.019 177.501 269.816 177.839 275.612 177.985C275.633 179.896 275.663 181.806 275.697 183.715C264.153 184.668 252.565 182.858 241.001 182.76C240.202 182.753 240.203 183.991 241.001 183.998C247.219 184.05 253.435 184.583 259.647 184.924C259.488 184.955 259.325 184.999 259.154 185.069C255.186 186.668 251.175 188.16 247.134 189.584C245.172 189.644 243.208 189.749 241.248 189.939C240.461 190.015 240.453 191.252 241.248 191.176C241.803 191.123 242.357 191.083 242.912 191.041C224.407 197.304 205.344 202.202 186.788 208.185C183.764 209.16 185.058 213.941 188.105 212.959C211.29 205.482 235.268 199.7 257.958 190.829C263.928 190.949 269.896 191.103 275.843 190.588C275.895 192.713 275.951 194.836 276.013 196.961C264.292 198.081 252.512 197.167 240.754 197.115C239.955 197.111 239.956 198.349 240.754 198.353C252.525 198.404 264.318 199.321 276.05 198.195C276.111 200.244 276.174 202.295 276.241 204.344C271.409 204.771 266.506 204.222 261.653 204.044C254.791 203.792 247.868 203.824 241.002 203.798C240.595 203.797 240.399 204.115 240.406 204.431C233.557 206.582 226.896 209.552 220.281 212.306C219.165 212.103 218.031 212.587 217.827 214.049C217.255 218.183 218.407 221.853 219.895 225.704C220.502 227.273 221.989 227.918 223.531 227.182C228.087 225.012 242.574 219.833 246.383 225.081C246.134 225.328 245.866 225.56 245.591 225.784C243.979 225.798 242.366 225.822 240.753 225.825C239.955 225.826 239.955 227.064 240.753 227.063C241.812 227.061 242.873 227.042 243.932 227.037C242.226 228.261 240.422 229.355 238.606 230.404C234.449 232.807 229.299 235.59 224.348 235.291C221.158 235.099 221.177 240.05 224.348 240.241C229.813 240.572 235.408 237.94 240.256 235.173C252.57 234.758 264.887 234.469 277.186 233.713C277.25 236.098 277.308 238.482 277.358 240.868C272.756 241.216 268.124 241.238 263.51 241.23C255.854 241.217 247.759 241.457 240.176 240.203C239.396 240.073 239.061 241.266 239.847 241.396C248.239 242.785 257.167 242.484 265.639 242.468C269.551 242.461 273.479 242.388 277.385 242.096C277.428 244.197 277.463 246.3 277.491 248.403C272.004 249.142 266.463 249.287 260.89 249.199C257.425 249.144 253.96 248.966 250.498 248.802C246.862 248.63 242.728 247.892 239.433 249.069C240.179 248.803 239.857 247.607 239.104 247.876C238.959 247.928 238.815 247.979 238.67 248.031C238.477 248.099 238.278 248.245 238.238 248.463C238.217 248.576 238.196 248.69 238.175 248.804C238.103 249.201 238.344 249.577 238.772 249.587C251.656 249.865 264.709 251.354 277.508 249.65C277.531 251.673 277.549 253.697 277.555 255.72C194.724 257.36 111.832 256.785 28.9981 255.687Z" fill="white"/>
<path d="M87.4536 96.5913C81.9027 97.0299 76.2953 97.0497 70.8117 96.0359C69.5435 94.6945 66.8428 95.036 66.5418 97.0932C66.1577 97.8585 66.1211 98.7842 66.5339 99.496C66.3884 107.061 63.4055 114.662 61.9245 122.06C59.2782 123.5 61.5196 127.454 64.2163 126.4C64.8361 126.442 65.437 126.26 65.8706 125.817C68.016 125.315 70.6038 125.688 72.6303 125.821C75.9775 126.04 79.3049 126.484 82.662 126.53C85.8558 126.574 85.8518 121.624 82.662 121.58C77.9457 121.516 72.3442 120.139 67.3042 120.595C68.109 117.192 69.098 113.764 69.9187 110.318C73.9966 110.781 78.0882 110.825 82.1799 111.169C85.3627 111.437 85.336 106.485 82.1799 106.219C78.4278 105.902 74.65 105.927 70.9078 105.5C71.1503 104.049 71.3344 102.596 71.4265 101.141C76.724 101.944 82.1047 101.963 87.4536 101.54C90.6137 101.292 90.6385 96.3399 87.4536 96.5913Z" fill="white"/>
<path d="M105.159 106.174C102.505 106.397 99.8762 106.483 97.219 106.254C94.0371 105.979 94.0639 110.931 97.219 111.204C99.8762 111.433 102.505 111.347 105.159 111.124C108.315 110.858 108.342 105.906 105.159 106.174Z" fill="white"/>
<path d="M103.687 113.147C101.638 113.368 99.5881 113.395 97.5308 113.439C96.1607 113.469 94.741 113.498 93.6768 114.471C91.3156 116.629 94.8262 120.12 97.1764 117.97C96.4339 118.65 96.132 118.445 97.1101 118.403C97.7348 118.375 98.3614 118.373 98.9871 118.362C100.558 118.335 102.123 118.265 103.688 118.097C105.028 117.953 106.163 117.08 106.163 115.622C106.162 114.383 105.031 113.003 103.687 113.147Z" fill="white"/>
<path d="M129.926 101.166C128.967 102.165 128.125 103.24 127.345 104.357C127.294 103.901 127.24 103.445 127.158 102.982C126.927 101.671 125.314 100.896 124.113 101.253C122.7 101.674 121.481 102.323 120.404 103.131C119.722 101.308 117.041 100.397 116.05 102.598C113.804 107.58 112.002 112.692 110.86 118.045C110.283 120.749 113.901 122.43 115.384 119.951C117.476 116.452 119.179 110.69 122.549 107.689C122.39 110.141 121.659 112.499 120.73 114.862C119.608 117.71 123.71 118.784 125.253 116.769C127.189 114.239 128.633 111.375 130.343 108.702C130.479 112.307 129.647 115.988 129.556 119.634C129.476 122.828 134.426 122.82 134.506 119.634C134.653 113.751 136.431 107.922 134.062 102.258C133.382 100.632 131.346 99.6841 129.926 101.166Z" fill="white"/>
<path d="M155.38 102.678C148.399 101.429 141.932 105.762 139.783 112.433C138.879 115.24 139.349 118.218 141.247 120.469C143.745 123.431 148.43 123.066 151.795 122.431C154.929 121.84 153.598 117.07 150.478 117.659C146.766 118.358 143.27 117.742 144.685 113.348C145.903 109.566 150.125 106.746 154.063 107.451C157.184 108.009 158.519 103.238 155.38 102.678Z" fill="white"/>
<path d="M170.783 97.5219C169.052 97.51 167.315 97.5912 165.584 97.5882C167.675 95.3261 169.375 92.6472 169.844 89.8573C170.215 87.6526 169.404 85.6043 167.155 84.8905C164.387 84.0124 160.95 86.2211 158.735 87.5536C156.003 89.197 158.491 93.4778 161.232 91.8274C162.214 91.2364 163.479 90.4236 164.664 89.992C163.587 92.8956 160.868 95.6676 158.367 97.3635C156.722 98.4792 156.713 101.407 158.958 101.887C162.887 102.727 166.802 102.443 170.783 102.469C173.976 102.492 173.974 97.5417 170.783 97.5219Z" fill="white"/>
<path d="M187.786 120.527C197.78 109.588 194.909 96.2191 185.125 86.4072C173.554 74.8014 156.25 68.6813 140.433 66.0043C136.832 65.3954 133.201 64.8846 129.556 64.4292C142.369 63.0501 155.316 62.7927 167.963 63.2927C171.157 63.4184 171.144 58.4684 167.963 58.3427C148.585 57.5764 128.855 58.7159 109.768 62.6373C102.475 62.2086 95.1766 62.0007 87.9407 61.9799C84.748 61.97 84.7489 66.92 87.9407 66.9299C89.5485 66.9349 91.1671 66.9438 92.7937 66.9567C92.1878 67.1418 91.578 67.3141 90.9741 67.5061C70.5385 73.9718 47.7061 86.7141 40.5316 108.356C33.3858 129.908 57.9506 141.373 74.6895 145.444C84.944 147.939 95.7082 147.952 106.197 147.612C118.207 147.225 130.217 145.724 141.961 143.196C158.433 139.649 176.14 133.274 187.786 120.527ZM180.094 121.112C161.888 137.08 133.751 141.061 110.53 142.462C90.1494 143.691 63.4214 143.084 48.5258 126.705C39.2842 116.544 47.2012 102.862 54.7411 94.4965C63.3511 84.946 74.6143 78.7763 86.5102 74.2787C94.2411 71.3562 102.244 69.1089 110.393 67.4121C126.524 68.1981 142.828 70.2524 157.617 75.633C168.032 79.4218 179.076 85.4301 185.683 94.5955C192.668 104.286 188.275 113.936 180.094 121.112Z" fill="white"/>
<path d="M203.614 144.728C202.191 146.095 203.146 149.247 205.365 148.953C216 147.54 226.671 146.21 237.038 143.352C240.111 142.506 238.804 137.729 235.721 138.579C228.419 140.593 220.965 141.842 213.479 142.902C219.449 138.173 225.78 132.995 226.551 125.605C227.782 113.792 208.093 118.128 203.614 123.364C201.551 125.776 205.036 129.293 207.114 126.864C209.334 124.269 214.289 123.227 217.511 122.924C223.288 122.379 221.407 127.34 219.355 130.236C215.206 136.095 208.716 139.826 203.614 144.728Z" fill="white"/>
<path d="M182.561 176.168C185.155 175.169 187.8 174.544 190.202 174.454C193.384 174.334 193.396 169.383 190.202 169.504C187.879 169.592 185.388 170.066 182.901 170.84C183.184 168.139 183.633 165.49 184.32 162.99C185.166 159.906 180.39 158.598 179.546 161.673C178.567 165.244 177.995 169.035 177.755 172.877C173.85 174.766 170.272 177.313 167.777 180.193C165.696 182.593 169.183 186.109 171.277 183.693C172.916 181.802 175.15 180.034 177.644 178.556C177.728 182.649 178.154 186.713 178.856 190.557C179.43 193.694 184.199 192.361 183.63 189.24C182.875 185.106 182.487 180.629 182.561 176.168Z" fill="white"/>
<path d="M227.399 169.192C231.2 165.761 233.718 161.534 232.304 155.75C232.029 154.63 231.001 154.007 229.917 153.933C222.789 153.443 214.085 155.37 210.81 162.46C209.48 165.337 213.746 167.853 215.082 164.958C217.316 160.123 222.768 158.817 227.749 158.809C227.836 165.498 218.595 169.449 213.765 172.598C211.028 174.381 213.389 178.113 216.263 176.87C218.037 176.104 231.833 170.656 230.334 176.753C228.92 182.505 220.681 184.92 215.703 185.355C212.548 185.63 212.521 190.583 215.703 190.305C223.674 189.609 234.815 185.289 235.441 175.871C235.798 170.504 231.995 169.037 227.399 169.192Z" fill="white"/>
</svg>
